<?xml version="1.0" encoding="UTF-8"?>
<svg xmlns="http://www.w3.org/2000/svg" xmlns:xlink="http://www.w3.org/1999/xlink" width="768pt" height="767.999994pt" viewBox="0 0 768 767.999994" version="1.2">
<defs>
<clipPath id="clip1">
  <path d="M 11.703125 11.703125 L 756.453125 11.703125 L 756.453125 756.453125 L 11.703125 756.453125 Z M 11.703125 11.703125 "/>
</clipPath>
</defs>
<g id="surface1">
<g clip-path="url(#clip1)" clip-rule="nonzero">
<path style=" stroke:none;fill-rule:nonzero;fill:#ffffff;fill-opacity:1;" d="M 715.722656 325.894531 L 442.261719 325.894531 L 442.261719 53.011719 C 442.261719 30.320312 424.222656 11.703125 401.53125 11.703125 L 366.621094 11.703125 C 343.929688 11.703125 325.894531 30.320312 325.894531 53.011719 L 325.894531 325.894531 L 52.429688 325.894531 C 29.738281 325.894531 11.703125 343.929688 11.703125 366.621094 L 11.703125 401.53125 C 11.703125 424.222656 29.738281 442.261719 52.429688 442.261719 L 325.894531 442.261719 L 325.894531 716.304688 C 325.894531 738.996094 343.929688 756.453125 366.621094 756.453125 L 401.53125 756.453125 C 424.222656 756.453125 442.261719 738.414062 442.261719 716.304688 L 442.261719 442.261719 L 715.722656 442.261719 C 738.414062 442.261719 756.453125 424.222656 756.453125 401.53125 L 756.453125 366.621094 C 756.453125 343.929688 738.414062 325.894531 715.722656 325.894531 Z M 715.722656 325.894531 "/>
</g>
</g>
</svg>
