<?xml version="1.0" encoding="UTF-8"?>
<svg xmlns="http://www.w3.org/2000/svg" xmlns:xlink="http://www.w3.org/1999/xlink" width="768pt" height="767.999994pt" viewBox="0 0 768 767.999994" version="1.2">
<defs>
<clipPath id="clip1">
  <path d="M 83 178 L 685 178 L 685 591.386719 L 83 591.386719 Z M 83 178 "/>
</clipPath>
</defs>
<g id="surface1">
<g clip-path="url(#clip1)" clip-rule="nonzero">
<path style=" stroke:none;fill-rule:evenodd;fill:#ffffff;fill-opacity:1;" d="M 670.976562 357.472656 C 678.511719 357.472656 684.628906 363.300781 684.628906 371.261719 L 684.628906 398.261719 C 684.628906 405.9375 678.511719 412.050781 670.976562 412.050781 L 182.726562 412.050781 L 319.402344 548.628906 C 324.949219 554.171875 324.808594 562.84375 319.402344 568.242188 L 300.34375 587.289062 C 294.65625 592.832031 286.265625 592.6875 280.859375 587.289062 L 87.867188 394.425781 C 82.605469 389.167969 82.460938 380.5 87.867188 375.097656 L 280.859375 182.234375 C 286.125 176.976562 294.941406 176.835938 300.34375 182.234375 L 319.402344 201.421875 C 325.09375 206.964844 324.808594 215.492188 319.402344 220.894531 L 182.726562 357.472656 Z M 670.976562 357.472656 "/>
</g>
</g>
</svg>
