<?xml version="1.0" encoding="UTF-8"?>
<svg xmlns="http://www.w3.org/2000/svg" xmlns:xlink="http://www.w3.org/1999/xlink" width="768pt" height="767.999994pt" viewBox="0 0 768 767.999994" version="1.2">
<defs>
<clipPath id="clip1">
  <path d="M 7 111.785156 L 761 111.785156 L 761 175 L 7 175 Z M 7 111.785156 "/>
</clipPath>
<clipPath id="clip2">
  <path d="M 7 593 L 761 593 L 761 656.285156 L 7 656.285156 Z M 7 593 "/>
</clipPath>
</defs>
<g id="surface1">
<path style=" stroke:none;fill-rule:nonzero;fill:rgb(100%,100%,100%);fill-opacity:1;" d="M 729.171875 415.449219 L 38.488281 415.449219 C 21.160156 415.449219 7.09375 401.375 7.09375 384.035156 C 7.09375 366.695312 21.160156 352.621094 38.488281 352.621094 L 729.171875 352.621094 C 746.5 352.621094 760.566406 366.695312 760.566406 384.035156 C 760.566406 401.375 746.5 415.449219 729.171875 415.449219 Z M 729.171875 415.449219 "/>
<g clip-path="url(#clip1)" clip-rule="nonzero">
<path style=" stroke:none;fill-rule:nonzero;fill:rgb(100%,100%,100%);fill-opacity:1;" d="M 729.171875 174.613281 L 38.488281 174.613281 C 21.160156 174.613281 7.09375 160.539062 7.09375 143.199219 C 7.09375 125.859375 21.160156 111.785156 38.488281 111.785156 L 729.171875 111.785156 C 746.5 111.785156 760.566406 125.859375 760.566406 143.199219 C 760.566406 160.539062 746.5 174.613281 729.171875 174.613281 Z M 729.171875 174.613281 "/>
</g>
<g clip-path="url(#clip2)" clip-rule="nonzero">
<path style=" stroke:none;fill-rule:nonzero;fill:rgb(100%,100%,100%);fill-opacity:1;" d="M 729.171875 656.285156 L 38.488281 656.285156 C 21.160156 656.285156 7.09375 642.210938 7.09375 624.871094 C 7.09375 607.53125 21.160156 593.457031 38.488281 593.457031 L 729.171875 593.457031 C 746.5 593.457031 760.566406 607.53125 760.566406 624.871094 C 760.566406 642.210938 746.5 656.285156 729.171875 656.285156 Z M 729.171875 656.285156 "/>
</g>
</g>
</svg>
