<?xml version="1.0" encoding="UTF-8"?>
<svg xmlns="http://www.w3.org/2000/svg" xmlns:xlink="http://www.w3.org/1999/xlink" width="768pt" height="767.999994pt" viewBox="0 0 768 767.999994" version="1.2">
<defs>
<clipPath id="clip1">
  <path d="M 3.027344 3.027344 L 765.027344 3.027344 L 765.027344 765.027344 L 3.027344 765.027344 Z M 3.027344 3.027344 "/>
</clipPath>
</defs>
<g id="surface1">
<g clip-path="url(#clip1)" clip-rule="nonzero">
<path style=" stroke:none;fill-rule:nonzero;fill:rgb(100%,100%,100%);fill-opacity:1;" d="M 581.171875 515.316406 C 535.085938 577.980469 461.363281 615.347656 384.027344 615.347656 C 306.6875 615.347656 232.964844 577.980469 186.882812 515.316406 C 184.542969 512.179688 183.695312 508.246094 184.542969 504.417969 C 200.171875 431.171875 255.183594 373.875 324.28125 352.453125 C 294.730469 332.945312 275.167969 299.515625 275.167969 261.5625 C 275.167969 201.554688 324.015625 152.707031 384.027344 152.707031 C 444.035156 152.707031 492.882812 201.554688 492.882812 261.5625 C 492.882812 299.515625 473.324219 332.945312 443.769531 352.453125 C 512.871094 373.875 567.882812 431.171875 583.507812 504.417969 C 584.359375 508.246094 583.507812 512.179688 581.171875 515.316406 Z M 384.027344 3.027344 C 173.914062 3.027344 3.027344 173.914062 3.027344 384.027344 C 3.027344 594.140625 173.914062 765.027344 384.027344 765.027344 C 594.140625 765.027344 765.027344 594.140625 765.027344 384.027344 C 765.027344 173.914062 594.140625 3.027344 384.027344 3.027344 "/>
</g>
<path style=" stroke:none;fill-rule:nonzero;fill:rgb(100%,100%,100%);fill-opacity:1;" d="M 384.027344 343.207031 C 429.046875 343.207031 465.667969 306.582031 465.667969 261.5625 C 465.667969 216.542969 429.046875 179.917969 384.027344 179.917969 C 339.007812 179.917969 302.382812 216.542969 302.382812 261.5625 C 302.382812 306.582031 339.007812 343.207031 384.027344 343.207031 "/>
<path style=" stroke:none;fill-rule:nonzero;fill:rgb(100%,100%,100%);fill-opacity:1;" d="M 384.027344 370.417969 C 303.234375 370.417969 232.0625 426.285156 212.503906 504.152344 C 254.175781 557.625 316.363281 588.132812 384.027344 588.132812 C 451.691406 588.132812 513.878906 557.625 555.550781 504.152344 C 535.992188 426.285156 464.820312 370.417969 384.027344 370.417969 "/>
</g>
</svg>
