<?xml version="1.0" encoding="UTF-8"?>
<svg xmlns="http://www.w3.org/2000/svg" xmlns:xlink="http://www.w3.org/1999/xlink" width="768pt" height="767.999994pt" viewBox="0 0 768 767.999994" version="1.2">
<defs>
<clipPath id="clip1">
  <path d="M 43 44 L 725 44 L 725 725.925781 L 43 725.925781 Z M 43 44 "/>
</clipPath>
</defs>
<g id="surface1">
<g clip-path="url(#clip1)" clip-rule="nonzero">
<path style=" stroke:none;fill-rule:nonzero;fill:rgb(100%,100%,100%);fill-opacity:1;" d="M 74.109375 725.902344 C 66.261719 725.902344 58.417969 722.910156 52.429688 716.925781 C 40.457031 704.957031 40.457031 685.554688 52.429688 673.589844 L 672.429688 53.875 C 684.398438 41.902344 703.808594 41.902344 715.789062 53.875 C 727.757812 65.835938 727.757812 85.238281 715.789062 97.210938 L 95.785156 716.925781 C 89.800781 722.910156 81.953125 725.902344 74.109375 725.902344 "/>
<path style=" stroke:none;fill-rule:nonzero;fill:rgb(100%,100%,100%);fill-opacity:1;" d="M 694.113281 725.902344 C 686.265625 725.902344 678.421875 722.910156 672.433594 716.925781 L 52.433594 97.210938 C 40.460938 85.238281 40.460938 65.835938 52.433594 53.875 C 64.40625 41.902344 83.820312 41.902344 95.789062 53.875 L 715.789062 673.589844 C 727.761719 685.554688 727.761719 704.957031 715.789062 716.925781 C 709.804688 722.910156 701.960938 725.902344 694.113281 725.902344 "/>
</g>
</g>
</svg>
